<svg xmlns="http://www.w3.org/2000/svg" xmlns:xlink="http://www.w3.org/1999/xlink" width="20" height="20" viewBox="0 0 20 20"><defs><path id="m8loa" d="M1381.85 44.833a6.049 6.049 0 0 1-6.016-6.02 5.94 5.94 0 0 1 1.74-4.233 5.95 5.95 0 0 1 4.233-1.743 6.049 6.049 0 0 1 6.016 6.02 5.94 5.94 0 0 1-1.739 4.232 5.95 5.95 0 0 1-4.233 1.744zm11.783 4.13l-5.476-5.478a7.75 7.75 0 0 0 1.5-4.617 7.902 7.902 0 0 0-7.856-7.868 7.766 7.766 0 0 0-7.8 7.812 7.903 7.903 0 0 0 7.856 7.868 7.726 7.726 0 0 0 4.631-1.516l.006-.005 5.47 5.474a1.18 1.18 0 1 0 1.669-1.67z"/></defs><g><g transform="translate(-1374 -31)"><use fill="#fff" xlink:href="#m8loa"/></g></g></svg>