<?xml version="1.0" encoding="utf-8"?>
<!-- Generator: Adobe Illustrator 22.1.0, SVG Export Plug-In . SVG Version: 6.00 Build 0)  -->
<svg version="1.1" id="Layer_1" xmlns="http://www.w3.org/2000/svg" xmlns:xlink="http://www.w3.org/1999/xlink" x="0px" y="0px"
	 viewBox="0 0 264.2 167.6" style="enable-background:new 0 0 264.2 167.6;" xml:space="preserve">
<style type="text/css">
	.st0{fill:#FFFFFF;}
</style>
<g>
	<path class="st0" d="M59.7,17.8c-0.9-2.5,1-5.1,3.6-5.1h10.6c1.6,0,3-1,3.6-2.5v0c0.9-2.5-0.9-5.2-3.6-5.2h-70c-1.6,0-3,1-3.6,2.5
		c-0.9,2.5,0.9,5.2,3.6,5.2H17c1.6,0,3,1,3.6,2.5l55.6,144.3c1.3,3.3,6,3.3,7.2-0.1l13.2-35.9c0.3-0.8,0.3-1.8,0-2.6L59.7,17.8z"/>
	<path class="st0" d="M220.5,139.9c-2.2,0-4.4-0.5-6.5-1.3c-0.3,0.4-0.6,0.9-1,1.3c-7.7,9.8-18.9,18-31.8,17.5
		c-23-0.8-35.1-26.5-39.6-45.8c-3.3-14.2-3.9-29-2.2-43.5c1.5-12.8,4.9-25.7,11.3-36.9c5-8.7,12.2-16.8,21.8-20.2
		c11.6-4.2,23.8-0.1,32.9,7.7c5.6,4.8,10.1,10.7,13.6,17c1.9,3.4,3.6,6.9,5,10.6c3-2.2,6-3.9,9-5.4c-2.1-5.7-4.6-11.1-7.9-16.2
		c-7.1-11-17.5-19.6-30.3-23.1c-11.5-3.1-23.8-1.9-35,1.9c-27.3,9.2-49.6,33.1-56.8,61c-6.7,26,1.1,53.1,18.5,73.2
		c15,17.3,37.6,30.4,61,29.8c13.4-0.4,25.9-5.8,35.2-15.5c3.9-4.1,7.2-8.7,9.9-13.7c-0.1,0-0.1,0-0.2,0
		C225.3,139.4,222.9,139.9,220.5,139.9z"/>
	<path class="st0" d="M261.5,49.4c-0.6,0-1.3-0.1-2.2-0.1c-6.4,0-17.9,1.3-28.5,9.7c-13.5,10.7-17,21.3-18.2,26.1
		c-0.3-4.9-1.8-16-13.1-29c-10-11.5-22.8-14.3-28.4-15.1c-0.1,0-0.3,0-0.4,0c-1.4,0-2.6,1-2.8,2.4c-0.8,5.3-1.5,17.5,4.7,29.9
		c6,11.9,16.7,18.7,17.2,19c-1.4,2.6-8.1,18,6.5,30.4c0.5,0.4,1.2,0.7,1.8,0.7c0.8,0,1.6-0.3,2.1-0.9c5-5.6,8.7-12.3,10.8-19.8
		c0.7,7.7,3.1,15,7,21.4c0.5,0.9,1.5,1.4,2.4,1.4c0.5,0,0.9-0.1,1.4-0.4c16.6-9.6,12.8-25.9,11.9-28.8c0.5-0.2,12.2-4.9,20.3-15.6
		c8.4-11.1,9.9-23.2,10.1-28.6C264.2,50.8,263.1,49.5,261.5,49.4z"/>
</g>
</svg>
